<svg viewBox="0 0 500 600" xmlns="http://www.w3.org/2000/svg">
  <rect width="500" height="600" fill="#f5f5f5"/>
  <path d="M178,110 L115,155 Q95,230 108,295 L155,283 Q148,210 168,158 L168,542 Q250,568 332,542 L332,158 Q352,210 345,283 L392,295 Q405,230 385,155 L322,110 Q305,132 288,138 L288,545 L282,545 L282,132 L250,128 L218,132 L218,545 L212,545 L212,138 Q195,132 178,110 Z" fill="#262626"/>
  <rect x="246" y="128" width="8" height="417" fill="#0d0d0d"/>
  <circle cx="250" cy="150" r="4" fill="#666"/>
  <circle cx="250" cy="250" r="4" fill="#666"/>
  <circle cx="250" cy="350" r="4" fill="#666"/>
  <path d="M205,130 Q250,105 295,130 L295,150 Q250,128 205,150 Z" fill="#0d0d0d"/>
  <text x="250" y="590" text-anchor="middle" font-size="14" fill="#999" font-family="sans-serif">Vorderseite (Platzhalter)</text>
</svg>