<svg viewBox="0 0 500 600" xmlns="http://www.w3.org/2000/svg">
  <rect width="500" height="600" fill="#f5f5f5" stroke="#d0d2d4" stroke-width="2"/>
  <path d="M175,115 L120,155 Q100,225 110,285 L155,275 Q150,205 165,155 L165,540 Q250,565 335,540 L335,155 Q350,205 345,275 L390,285 Q400,225 380,155 L325,115 Q305,145 285,150 L285,120 L215,120 L215,150 Q195,145 175,115 Z" fill="#f5f5f5"/>
  <path d="M232,122 L268,122 L268,175 L250,190 L232,175 Z" fill="#c9cbcd" stroke="#9a9ca0" stroke-width="1.5"/>
  <circle cx="250" cy="140" r="3" fill="#555"/>
  <circle cx="250" cy="158" r="3" fill="#555"/>
  <text x="250" y="590" text-anchor="middle" font-size="14" fill="#999" font-family="sans-serif">Vorderseite (Platzhalter)</text>
</svg>